<svg fill="#000000" height="100" width="100" version="1.1" xmlns="http://www.w3.org/2000/svg" viewBox="-87.04 -87.04 686.08 686.08" xmlns:xlink="http://www.w3.org/1999/xlink" enable-background="new 0 0 512 512"><g id="SVGRepo_bgCarrier" stroke-width="0"><rect x="-87.04" y="-87.04" width="686.08" height="686.08" rx="343.04" fill="#7ed0ec" strokewidth="0"></rect></g><g id="SVGRepo_tracerCarrier" stroke-linecap="round" stroke-linejoin="round"></g><g id="SVGRepo_iconCarrier"> <g> <path d="m480.7,333c0,0-84.2-4.6-85-4.6l-71.7-78.5 166.1-87.9c18.9-10.2 11.4-37.3-8.3-38.4 0,0-288.2-18.2-289.3-18.1l-68.2-74.8c-15.7-19.1-61.4-32.5-93.9,0-25.9,25.9-25.8,68.2 0,94.2 0.3,0.3 0.5,0.5 0.8,0.8l76.2,68.8c0,0 0,0.1 0,0.1l18,287.5c2,22.7 31.1,24.6 38.5,8.2l86.9-166.3 78.3,70.7c-0.1,1.1 4.5,86.3 4.5,86.3 3.5,28.5 41.7,23.5 40.8-2.3l-2.6-46.4c8.7,5.8 17.9,8.9 27.2,8.9 11.3,0 21.7-4.5 30.1-13 15.7-15.8 17-37.7 4.4-56.9 0,0 45.6,2.6 46,2.5 28.7-2.3 24.8-39.8 1.2-40.8zm-73.6-173.3l-111.4,59-63.9-70.1 175.3,11.1zm-245.5,246.8l-10.8-172.9 68.8,62.1-58,110.8zm230-10.5l-332.6-300.3c-9.7-10.1-9.6-26.3 0.3-36.2 4.8-4.8 31.2-4.8 35.4-0.6l302.1,331.6c4,4.2-1.3,9.1-5.2,5.5z"></path> </g> </g></svg>